<?xml version="1.0" encoding="UTF-8"?>
<svg id="Layer_1" data-name="Layer 1" xmlns="http://www.w3.org/2000/svg" viewBox="0 0 141.67 141.67">
  <defs>
    <style>
      .cls-1 {
        fill: #fff;
      }

      .cls-2 {
        fill: #f68820;
      }
    </style>
  </defs>
  <circle class="cls-2" cx="70.84" cy="70.84" r="70.84"/>
  <path class="cls-1" d="M44.18,83.48v5.67h-6.49v-5.65l6.49-.02ZM27,82.76v6.38h6.48v-6.38h-6.48ZM24.45,94.03v2.13h2.16v-2.13h-2.16ZM34.86,107.65v1.43h1.47v-1.43h-1.47ZM38.64,94.03v6.76h6.85v-6.76h-6.85ZM28.59,99.8v4.44h4.5v-4.44h-4.5ZM39.52,112.2v3.88h3.94v-3.88h-3.94ZM44.59,105.18v6.84h6.95v-6.84h-6.95ZM48.16,116.33v2.89h2.91v-2.89h-2.91ZM54.32,113.2v6.43h6.54v-6.43h-6.54ZM61.43,119.24v4.24h4.3v-4.24h-4.3ZM105.66,27.43l-.23,62.45c-.05,11.32-6.36,21.36-16.27,26.98-5.32,3.05-11.02,4.17-17.07,4.37-.75.05-1.5.05-2.24.05-.7,0-1.39-.02-2.06-.05v-8.22h-6.82v-5.13h-6.36v-2.7h-3.07v-11.15h-4.5v-10.58h1.91l6.72-.02c.39,2.7.05,5.21.29,7.95.66,8,8.21,13.21,16.43,12.35,7.47-.78,12.8-6.06,12.77-13.38l-.07-41.04-13.98-.07-.07-21.7,34.66-.1h-.02ZM58.98,101.03h-4.04v3.85h4.04v-3.85Z"/>
  <path class="cls-1" d="M76.78,88.53l-12.78.07,3.79-15.01c-3.13-1.45-4.71-4.5-3.99-7.76.64-2.92,3.31-5.14,6.48-5.2,3.17-.05,5.88,2.07,6.63,4.95.85,3.23-.6,6.35-3.73,7.92l3.6,15.03h0Z"/>
</svg>
