<svg width="500" height="500" viewBox="0 0 500 500" fill="none" xmlns="http://www.w3.org/2000/svg">
<g clip-path="url(#clip0_878_706)">
<path d="M250 500C388.071 500 500 388.071 500 250C500 111.929 388.071 0 250 0C111.929 0 0 111.929 0 250C0 388.071 111.929 500 250 500Z" fill="white"/>
<path d="M277.884 486.005C271.888 486.005 266.176 483.215 261.065 480.722C256.866 478.673 252.522 476.553 249.12 476.553C245.718 476.553 241.377 478.673 237.175 480.722C231.389 483.547 224.833 486.748 217.964 485.854C210.913 484.933 205.317 480.077 200.384 475.789C196.774 472.653 193.363 469.692 190.242 468.857C187.003 467.99 182.499 468.866 177.732 469.793C171.38 471.028 164.179 472.425 157.733 469.751C151.204 467.045 147.082 460.919 143.443 455.512C140.757 451.523 138.222 447.757 135.392 446.12C132.516 444.455 127.956 444.133 123.13 443.789C116.66 443.33 109.328 442.809 103.77 438.539C98.1948 434.255 95.7993 427.29 93.688 421.146C92.1187 416.583 90.6352 412.272 88.3048 409.939C85.9745 407.608 81.6632 406.125 77.0972 404.555C70.953 402.441 63.9886 400.049 59.704 394.473C55.4341 388.915 54.913 381.584 54.454 375.114C54.1105 370.287 53.7878 365.727 52.1237 362.852C50.4862 360.021 46.7197 357.487 42.7312 354.801C37.3243 351.162 31.1978 347.037 28.4914 340.511C25.8176 334.065 27.2152 326.864 28.45 320.512C29.3768 315.745 30.2503 311.241 29.3857 308.002C28.5507 304.881 25.5896 301.47 22.4538 297.858C18.1662 292.922 13.3101 287.328 12.3892 280.278C11.495 273.411 14.6959 266.853 17.5207 261.067C19.5698 256.868 21.6899 252.524 21.6899 249.122C21.6899 245.72 19.5698 241.379 17.5207 237.177C14.6959 231.391 11.495 224.833 12.3892 217.966C13.3071 210.916 18.1662 205.319 22.4538 200.383C25.5896 196.774 28.5507 193.363 29.3857 190.242C30.2503 187.002 29.3768 182.499 28.45 177.731C27.2152 171.38 25.8176 164.179 28.4914 157.733C31.1978 151.203 37.3243 147.082 42.7312 143.443C46.7197 140.757 50.4862 138.222 52.1237 135.392C53.7878 132.516 54.1105 127.956 54.454 123.13C54.913 116.66 55.4341 109.329 59.704 103.771C63.9886 98.195 70.953 95.7995 77.0972 93.6883C81.6602 92.119 85.9715 90.6355 88.3019 88.3052C90.6322 85.9748 92.1157 81.6636 93.6851 77.0976C95.7993 70.9535 98.1918 63.9892 103.767 59.7045C109.325 55.4347 116.657 54.9136 123.127 54.4546C127.953 54.1111 132.513 53.7884 135.389 52.1243C138.219 50.4868 140.754 46.7204 143.44 42.7319C147.079 37.325 151.204 31.1987 157.73 28.4923C164.176 25.8185 171.377 27.2161 177.729 28.4508C182.496 29.3776 187 30.2511 190.239 29.3865C193.36 28.5515 196.771 25.5905 200.384 22.4547C205.32 18.1671 210.913 13.3111 217.967 12.3902C224.833 11.4959 231.389 14.6968 237.178 17.5216C241.377 19.5707 245.721 21.6908 249.123 21.6908C252.525 21.6908 256.866 19.5707 261.068 17.5216C266.854 14.6968 273.413 11.4959 280.279 12.3902C287.33 13.3081 292.926 18.1671 297.862 22.4547C301.472 25.5905 304.883 28.5515 308.004 29.3865C311.243 30.2541 315.747 29.3776 320.517 28.4508C326.869 27.2161 334.07 25.8185 340.516 28.4923C347.045 31.1987 351.167 37.325 354.806 42.7319C357.492 46.7204 360.026 50.4868 362.857 52.1243C365.732 53.7884 370.292 54.1111 375.119 54.4546C381.589 54.9136 388.921 55.4347 394.478 59.7045C400.054 63.9892 402.45 70.9535 404.561 77.0976C406.13 81.6606 407.614 85.9719 409.944 88.3052C412.274 90.6385 416.586 92.119 421.152 93.6883C427.296 95.8025 434.26 98.195 438.545 103.771C442.815 109.329 443.336 116.66 443.795 123.13C444.138 127.956 444.461 132.516 446.125 135.392C447.763 138.222 451.529 140.757 455.518 143.443C460.925 147.082 467.051 151.206 469.757 157.733C472.431 164.179 471.034 171.38 469.799 177.731C468.872 182.499 467.999 187.002 468.863 190.242C469.698 193.363 472.659 196.774 475.795 200.386C480.083 205.322 484.939 210.916 485.86 217.969C486.754 224.835 483.553 231.394 480.728 237.18C478.679 241.379 476.559 245.723 476.559 249.125C476.559 252.527 478.679 256.868 480.728 261.07C483.553 266.856 486.754 273.414 485.86 280.281C484.942 287.331 480.083 292.927 475.795 297.863C472.659 301.473 469.698 304.884 468.863 308.008C467.999 311.247 468.872 315.751 469.799 320.518C471.034 326.87 472.431 334.071 469.757 340.517C467.051 347.046 460.925 351.168 455.518 354.807C451.529 357.493 447.763 360.027 446.125 362.858C444.461 365.733 444.138 370.293 443.798 375.12C443.339 381.59 442.818 388.921 438.548 394.479C434.263 400.055 427.299 402.45 421.155 404.561C416.592 406.131 412.28 407.614 409.95 409.945C407.62 412.275 406.136 416.586 404.567 421.152C402.453 427.296 400.06 434.261 394.484 438.545C388.926 442.815 381.595 443.336 375.125 443.795C370.298 444.139 365.738 444.461 362.863 446.125C360.032 447.763 357.498 451.529 354.812 455.518C351.173 460.925 347.048 467.051 340.522 469.757C334.076 472.431 326.874 471.034 320.523 469.799C315.756 468.872 311.252 467.999 308.013 468.863C304.892 469.698 301.48 472.659 297.868 475.795C292.932 480.083 287.338 484.939 280.288 485.86C279.489 485.963 278.689 486.014 277.899 486.014L277.884 486.005ZM249.12 464.682C255.264 464.682 260.858 467.415 266.27 470.056C270.97 472.351 275.411 474.519 278.74 474.083C282.245 473.627 286.047 470.323 290.074 466.826C294.543 462.944 299.165 458.932 304.936 457.389C310.82 455.817 316.896 456.998 322.773 458.138C327.937 459.142 332.817 460.09 335.965 458.784C339.19 457.445 341.991 453.285 344.958 448.879C348.277 443.949 351.709 438.85 356.908 435.842C362.155 432.807 368.315 432.368 374.275 431.948C379.54 431.575 384.514 431.223 387.242 429.126C389.986 427.015 391.612 422.289 393.335 417.285C395.275 411.647 397.28 405.817 401.549 401.547C405.819 397.277 411.65 395.273 417.287 393.333C422.292 391.613 427.02 389.987 429.129 387.239C431.225 384.512 431.578 379.538 431.951 374.273C432.374 368.315 432.809 362.153 435.844 356.906C438.853 351.704 443.952 348.272 448.882 344.956C453.288 341.992 457.448 339.191 458.787 335.963C460.093 332.816 459.145 327.939 458.141 322.772C457.001 316.894 455.82 310.815 457.392 304.934C458.935 299.163 462.947 294.544 466.829 290.073C470.326 286.046 473.628 282.244 474.087 278.738C474.522 275.407 472.354 270.968 470.059 266.269C467.418 260.856 464.685 255.263 464.685 249.119C464.685 242.975 467.418 237.381 470.059 231.969C472.354 227.269 474.522 222.828 474.087 219.5C473.631 215.994 470.326 212.192 466.829 208.165C462.947 203.697 458.935 199.074 457.392 193.303C455.82 187.42 457.001 181.344 458.141 175.466C459.145 170.302 460.093 165.422 458.787 162.275C457.448 159.05 453.288 156.249 448.882 153.282C443.952 149.963 438.853 146.531 435.844 141.331C432.809 136.084 432.371 129.925 431.951 123.965C431.578 118.7 431.225 113.726 429.129 110.999C427.018 108.254 422.292 106.628 417.287 104.908C411.65 102.968 405.819 100.964 401.549 96.6938C397.28 92.424 395.275 86.5937 393.335 80.9559C391.615 75.9517 389.989 71.223 387.242 69.1147C384.514 67.0183 379.54 66.6659 374.275 66.2928C368.317 65.8694 362.155 65.4341 356.908 62.3991C351.706 59.3907 348.274 54.2918 344.958 49.3616C341.994 44.9556 339.192 40.7954 335.965 39.457C332.82 38.1512 327.94 39.0987 322.773 40.1025C316.896 41.2454 310.817 42.4239 304.936 40.8516C299.165 39.3089 294.546 35.2967 290.074 31.4148C286.047 27.9178 282.245 24.6163 278.74 24.1573C275.411 23.722 270.97 25.8895 266.27 28.1843C260.858 30.8256 255.264 33.5586 249.12 33.5586C242.976 33.5586 237.382 30.8285 231.97 28.1843C227.27 25.8895 222.829 23.722 219.501 24.1573C215.995 24.6133 212.193 27.9178 208.166 31.4148C203.697 35.2967 199.075 39.3089 193.304 40.8516C187.42 42.4239 181.344 41.2425 175.467 40.1025C170.303 39.0987 165.423 38.1512 162.275 39.457C159.05 40.7954 156.249 44.9556 153.282 49.3616C149.963 54.2918 146.531 59.3907 141.332 62.3991C136.085 65.4341 129.925 65.8724 123.965 66.2928C118.7 66.6659 113.726 67.0183 110.998 69.1147C108.254 71.2259 106.628 75.9517 104.908 80.9559C102.968 86.5937 100.963 92.424 96.6935 96.6938C92.4237 100.964 86.5934 102.968 80.9555 104.908C75.9513 106.628 71.2225 108.254 69.1142 110.999C67.0178 113.726 66.6654 118.7 66.2923 123.965C65.8689 129.923 65.4336 136.084 62.3985 141.331C59.3901 146.534 54.2912 149.966 49.361 153.282C44.9549 156.246 40.7946 159.047 39.4562 162.275C38.1504 165.422 39.098 170.299 40.1018 175.466C41.2418 181.344 42.4232 187.423 40.8509 193.303C39.3082 199.074 35.296 203.694 31.414 208.165C27.917 212.192 24.6154 215.994 24.1564 219.5C23.7212 222.831 25.8887 227.269 28.1835 231.969C30.8248 237.381 33.5578 242.975 33.5578 249.119C33.5578 255.263 30.8277 260.856 28.1835 266.269C25.8887 270.968 23.7212 275.41 24.1564 278.738C24.6124 282.244 27.917 286.046 31.414 290.073C35.296 294.541 39.3082 299.163 40.8509 304.934C42.4232 310.818 41.2418 316.894 40.1018 322.772C39.098 327.936 38.1504 332.816 39.4562 335.963C40.7946 339.188 44.9549 341.989 49.361 344.956C54.2912 348.275 59.3901 351.707 62.3985 356.906C65.4336 362.153 65.8719 368.312 66.2923 374.273C66.6654 379.538 67.0178 384.512 69.1142 387.239C71.2254 389.984 75.9513 391.61 80.9555 393.33C86.5934 395.27 92.4237 397.274 96.6935 401.544C100.963 405.814 102.968 411.644 104.908 417.282C106.628 422.286 108.254 427.015 110.998 429.123C113.726 431.22 118.7 431.572 123.965 431.945C129.923 432.368 136.085 432.804 141.332 435.839C146.534 438.847 149.966 443.946 153.282 448.876C156.246 453.282 159.048 457.442 162.275 458.781C165.423 460.087 170.3 459.139 175.467 458.135C181.344 456.992 187.423 455.814 193.304 457.386C199.075 458.929 203.694 462.941 208.166 466.823C212.193 470.32 215.995 473.622 219.501 474.081C222.832 474.516 227.27 472.348 231.97 470.054C237.382 467.412 242.976 464.679 249.12 464.679V464.682Z" fill="#F68820"/>
<path d="M346.357 314.212C346.212 345.345 328.92 373.449 300.698 389.445L300.665 389.464L300.632 389.483C287.438 397.031 273.062 400.534 256.671 401.587V380.405C289.525 376.275 315.528 351.771 315.784 316.652L315.785 315.808L315.536 176.09L315.502 156.988L296.4 156.895L267.854 156.753L267.734 121.16L347.073 120.928L346.357 314.212Z" stroke="white" stroke-width="38.4615"/>
<path d="M346.357 314.212C346.212 345.345 328.92 373.449 300.698 389.445L300.665 389.464L300.632 389.483C287.438 397.031 273.062 400.534 256.671 401.587V380.405C289.525 376.275 315.528 351.771 315.784 316.652L315.785 315.808L315.536 176.09L315.502 156.988L296.4 156.895L267.854 156.753L267.734 121.16L347.073 120.928L346.357 314.212Z" stroke="#F68820" stroke-width="38.4615"/>
<path d="M246.209 237.326C248.061 237.295 249.388 238.459 249.808 239.601L249.879 239.828C250.217 241.131 250.013 241.907 249.79 242.382C249.554 242.885 248.912 243.842 247.153 244.725L246.294 245.155L245.448 244.766C243.723 243.97 243.043 243.052 242.778 242.537C242.531 242.057 242.302 241.285 242.594 239.977L242.597 239.96L242.601 239.944C242.714 239.433 243.054 238.78 243.749 238.217C244.422 237.671 245.269 237.342 246.209 237.326Z" stroke="white" stroke-width="38.4615"/>
<path d="M246.209 237.326C248.061 237.295 249.388 238.459 249.808 239.601L249.879 239.828C250.217 241.131 250.013 241.907 249.79 242.382C249.554 242.885 248.912 243.842 247.153 244.725L246.294 245.155L245.448 244.766C243.723 243.97 243.043 243.052 242.778 242.537C242.531 242.057 242.302 241.285 242.594 239.977L242.597 239.96L242.601 239.944C242.714 239.433 243.054 238.78 243.749 238.217C244.422 237.671 245.269 237.342 246.209 237.326Z" stroke="#F68820" stroke-width="38.4615"/>
</g>
<defs>
<clipPath id="clip0_878_706">
<rect width="500" height="500" fill="white"/>
</clipPath>
</defs>
</svg>
